<?xml version="1.0" encoding="iso-8859-1"?>
<!-- Generator: Adobe Illustrator 19.0.0, SVG Export Plug-In . SVG Version: 6.00 Build 0)  -->
<svg version="1.1" id="Layer_1" xmlns="http://www.w3.org/2000/svg" xmlns:xlink="http://www.w3.org/1999/xlink" x="0px" y="0px"
	 viewBox="0 0 511.999 511.999" style="enable-background:new 0 0 511.999 511.999;" xml:space="preserve">
<polygon style="fill:#CCCCCC;" points="302.312,470.316 209.682,470.316 217.438,438.009 224.931,406.841 287.075,406.841 
	294.556,438.009 "/>
<polygon style="fill:#999999;" points="294.556,438.009 217.438,438.009 224.931,406.841 254.392,374.748 287.075,406.841 "/>
<path style="fill:#CCCCCC;" d="M503.01,73.843v300.305c0,18.054-14.637,32.691-32.691,32.691H41.685
	c-18.054,0-32.691-14.637-32.691-32.691V73.843c0-18.054,14.637-32.691,32.691-32.691h428.634
	C488.372,41.153,503.01,55.79,503.01,73.843z"/>
<path style="fill:#E6E6E6;" d="M503.01,73.846v300.305c0,18.054-14.637,32.691-32.691,32.691H207.704L310.236,41.155H470.32
	C488.373,41.155,503.01,55.792,503.01,73.846z"/>
<rect x="8.994" y="86" style="fill:#9BD7F4;" width="494.015" height="275.994"/>
<polygon style="fill:#C8EDFC;" points="503.01,86.001 503.01,361.995 220.28,361.995 297.66,86.001 "/>
<path d="M470.316,32.428H41.683C18.7,32.428,0,51.128,0,74.112v40.432c0,4.965,4.024,8.991,8.991,8.991s8.991-4.025,8.991-8.991
	V74.112c0-13.069,10.632-23.701,23.701-23.701h428.634c13.069,0,23.701,10.632,23.701,23.701v267.001
	c0,4.965,4.024,8.991,8.991,8.991s8.991-4.026,8.991-8.991V74.112C512,51.128,493.3,32.428,470.316,32.428z"/>
<path d="M503.009,365.42c-4.967,0-8.991,4.025-8.991,8.991c0,13.069-10.632,23.701-23.701,23.701H41.683
	c-13.069,0-23.701-10.632-23.701-23.701V149.309c0-4.965-4.024-8.991-8.991-8.991S0,144.343,0,149.309v225.102
	c0,22.984,18.7,41.683,41.683,41.683h171.839l-10.923,45.496h-42.503c-4.967,0-8.991,4.026-8.991,8.991
	c0,4.965,4.024,8.991,8.991,8.991h49.59h92.623H351.9c4.967,0,8.991-4.025,8.991-8.991c0-4.965-4.024-8.991-8.991-8.991h-42.503
	l-10.922-45.496h171.839c22.984,0,41.683-18.698,41.683-41.683C512,369.445,507.975,365.42,503.009,365.42z M290.906,461.589
	h-69.813l10.923-45.496h47.968L290.906,461.589z"/>
<path d="M39.35,371.246H472.65c4.967,0,8.991-4.025,8.991-8.991s-4.024-8.991-8.991-8.991H39.35c-4.967,0-8.991,4.025-8.991,8.991
	S34.384,371.246,39.35,371.246z"/>
<path d="M481.641,86.267c0-4.965-4.024-8.991-8.991-8.991H39.35c-4.967,0-8.991,4.025-8.991,8.991c0,4.965,4.024,8.991,8.991,8.991
	H472.65C477.617,95.258,481.641,91.233,481.641,86.267z"/>
<path d="M216.82,173.309c-2.726-4.15-8.3-5.305-12.452-2.579l-70.053,46.016c-2.529,1.663-4.054,4.487-4.054,7.515
	c0,3.028,1.524,5.852,4.055,7.515l70.053,46.016c1.521,1,3.233,1.477,4.927,1.477c2.925,0,5.796-1.427,7.522-4.055
	c2.726-4.15,1.573-9.724-2.579-12.45l-58.613-38.501l58.614-38.501C218.393,183.034,219.547,177.459,216.82,173.309z"/>
<path d="M311.771,253.558l-14.012,9.205c-4.15,2.726-5.305,8.3-2.577,12.45c1.726,2.629,4.596,4.055,7.522,4.055
	c1.694,0,3.407-0.478,4.928-1.477l14.012-9.205c4.15-2.726,5.305-8.3,2.577-12.45C321.497,251.985,315.921,250.831,311.771,253.558z
	"/>
<path d="M330.313,252.136c1.726,2.629,4.596,4.055,7.522,4.055c1.694,0,3.407-0.478,4.927-1.477l34.92-22.939
	c2.531-1.663,4.055-4.487,4.055-7.515s-1.524-5.852-4.054-7.515l-70.053-46.016c-4.151-2.725-9.724-1.572-12.452,2.579
	c-2.726,4.15-1.573,9.724,2.577,12.45l58.614,38.501l-23.48,15.423C328.74,242.411,327.587,247.984,330.313,252.136z"/>
<path d="M268.909,143.359l-43.156,157.039c-1.316,4.788,1.498,9.736,6.286,11.052c0.797,0.219,1.599,0.324,2.387,0.324
	c3.948,0,7.568-2.621,8.665-6.611l43.156-157.039c1.316-4.788-1.498-9.736-6.286-11.052
	C275.171,135.755,270.224,138.572,268.909,143.359z"/>
<g>
</g>
<g>
</g>
<g>
</g>
<g>
</g>
<g>
</g>
<g>
</g>
<g>
</g>
<g>
</g>
<g>
</g>
<g>
</g>
<g>
</g>
<g>
</g>
<g>
</g>
<g>
</g>
<g>
</g>
</svg>
